<svg width="312" height="309" viewBox="0 0 312 309" fill="none" xmlns="http://www.w3.org/2000/svg">
<path d="M220.88 34.8574C221.538 32.4442 222.33 30.0191 222.885 27.5742C222.219 30.0191 221.423 32.4521 220.88 34.8574Z" fill="url(#paint0_linear_11_550)"/>
<path d="M131.349 116.305L128.971 117.355C128.971 117.355 113.474 177.562 113.474 182.428C113.474 187.294 146.336 214.371 146.336 214.371L151.463 179.762C151.463 179.762 144.101 100.395 131.349 116.305Z" fill="#E8F5FF"/>
<path d="M203.433 97.1534L189.702 89.989C188.933 86.7106 187.569 83.6012 185.676 80.8156C183.667 77.915 180.996 75.0659 177.668 73.5799C169.255 69.8075 213.252 50.0064 213.252 50.0064C213.945 52.3851 214.761 54.7262 215.697 57.0202C217.964 62.6154 221.724 69.8511 226.57 71.9117C234.808 75.4186 203.433 97.1534 203.433 97.1534Z" fill="#FFC1C7"/>
<path opacity="0.1" d="M215.697 57.0202C213.817 63.6318 209.908 69.4858 204.521 73.7554C199.134 78.0251 192.542 80.4948 185.676 80.8156C183.667 77.915 180.996 75.0659 177.668 73.5799C169.255 69.8075 213.252 50.0064 213.252 50.0064C213.945 52.3851 214.761 54.7262 215.697 57.0202Z" fill="black"/>
<path d="M216.933 47.0226C216.935 53.5069 215.013 59.846 211.412 65.2382C207.811 70.6304 202.691 74.8334 196.701 77.3158C190.71 79.7981 184.118 80.4482 177.759 79.1838C171.399 77.9195 165.557 74.7975 160.971 70.2127C156.386 65.6279 153.263 59.7862 151.998 53.4266C150.733 47.0669 151.382 40.4749 153.864 34.4843C156.346 28.4936 160.548 23.3735 165.94 19.7715C171.332 16.1694 177.67 14.2472 184.155 14.248C188.464 14.228 192.736 15.0621 196.721 16.7021C200.707 18.3421 204.328 20.7554 207.376 23.8027C210.423 26.8501 212.837 30.471 214.478 34.4564C216.118 38.4419 216.953 42.7128 216.933 47.0226Z" fill="#FFC1C7"/>
<path d="M221.665 92.9451L212.725 113.804L204.839 127.649H179.598L172.235 108.72L175.219 89.0895H194.497L206.943 88.3881L211.148 86.9854L213.858 88.5228L221.665 92.9451Z" fill="#575A89"/>
<path opacity="0.1" d="M218.586 65.1395C218.586 65.1395 224.161 66.3283 219.168 70.4217C214.175 74.515 196.95 87.5322 196.95 87.5322C196.95 87.5322 203.001 92.9213 201.749 99.2337L221.795 88.0592L225.362 70.18C225.362 70.18 225.762 64.8067 218.586 65.1395Z" fill="black"/>
<path opacity="0.1" d="M200.893 87.5322L188.141 89.6363C188.141 89.6363 190.772 99.3645 189.457 102.126C189.417 102.212 189.384 102.301 189.358 102.392L184.155 116.455L188.054 127.499L201.55 109.093L196.95 102.126C196.95 102.126 201.812 95.6833 204.705 93.4483C207.597 91.2134 200.893 87.5322 200.893 87.5322Z" fill="black"/>
<path d="M200.893 86.9893L188.141 89.0895C188.141 89.0895 190.772 98.8177 189.457 101.58C189.417 101.665 189.384 101.754 189.358 101.845L184.155 115.908L188.054 126.952L201.55 108.534L196.95 101.568C196.95 101.568 201.812 95.1245 204.705 92.8896C207.597 90.6547 200.893 86.9893 200.893 86.9893Z" fill="#DCE6F2"/>
<path d="M219.121 64.0895C219.121 64.0895 224.696 65.2783 219.699 69.3716C214.702 73.465 196.95 87.5322 196.95 87.5322C196.95 87.5322 203.524 91.8713 202.276 98.1797L222.322 87.0091L225.889 69.1299C225.889 69.1299 226.285 63.7566 219.121 64.0895Z" fill="#575A89"/>
<path opacity="0.1" d="M186.552 82.0559C186.552 82.0559 187.769 84.3304 193.138 88.4317C193.138 88.4317 184.198 93.1868 187.618 99.8717L173.943 96.3054L171.839 89.7315L186.552 82.0559Z" fill="black"/>
<path d="M186.025 81.5328C186.025 81.5328 187.241 83.8074 192.611 87.9087C192.611 87.9087 183.671 92.64 187.091 99.3447L173.42 95.7784L171.316 89.2084L186.025 81.5328Z" fill="#575A89"/>
<path opacity="0.1" d="M221.665 92.9451L212.725 113.804L204.855 127.649H179.598L172.235 108.72L175.215 89.0895H180.576C180.489 93.6702 182.161 99.0514 182.054 101.053C181.872 104.342 186.96 122.086 186.96 122.086C186.96 122.086 197.608 104.865 201.812 103.331C204.455 102.368 210.054 94.3558 213.854 88.5228L221.665 92.9451Z" fill="black"/>
<path d="M256.88 202.713L255.973 203.854C255.973 203.854 262.547 236.851 260.728 244.344C260.419 245.695 260.242 247.072 260.201 248.457V248.517C259.88 256.141 262.182 266.035 262.182 266.035C262.182 266.035 264.021 295.2 262.975 307.195H139.888C139.167 289.458 138.391 266.479 139.096 263.931C140.285 259.727 142.662 244.475 142.662 244.475L142.924 237.247C142.924 237.247 142.924 230.261 143.138 222.478C143.229 218.979 143.364 215.306 143.558 212.049C143.807 207.951 144.156 204.5 144.636 202.804C144.931 201.519 145.101 200.207 145.143 198.889C145.143 198.766 145.143 198.639 145.167 198.513C145.167 198.116 145.206 197.688 145.222 197.249C145.222 197.126 145.222 197.003 145.222 196.852C145.297 194.3 145.27 191.273 145.186 188.135C145.186 187.964 145.186 187.79 145.186 187.615C145.119 185.262 145.02 182.86 144.909 180.578C144.564 173.445 144.117 167.414 144.117 167.414L128.999 117.327L133.073 107.294L144.378 100.367L165.281 87.7462C175.477 79.3653 182.189 80.3718 184.749 81.2911C184.998 81.3759 185.241 81.4752 185.478 81.5883C185.557 81.6279 185.621 81.6596 185.68 81.6953C185.762 81.7338 185.84 81.7789 185.914 81.83C185.213 82.1672 184.604 82.6689 184.139 83.2922C183.615 84.0016 183.241 84.8107 183.041 85.6698C182.907 86.2023 182.813 86.744 182.76 87.2905C182.708 87.8651 182.688 88.4594 182.688 89.0578C182.717 90.37 182.829 91.679 183.025 92.9768C183.025 93.0006 183.025 93.0323 183.025 93.064C183.156 93.9912 183.319 94.8987 183.477 95.7506C183.475 95.7651 183.475 95.7797 183.477 95.7942C183.659 96.7888 183.842 97.7081 183.964 98.5007C183.988 98.6433 184.008 98.7741 184.028 98.8969C184.115 99.4206 184.156 99.951 184.151 100.482C184.195 101.764 184.368 103.038 184.666 104.286C184.769 104.809 184.888 105.368 185.018 105.95C185.197 106.743 185.391 107.607 185.601 108.486C185.716 108.97 185.839 109.469 185.966 109.964C186.013 110.163 186.065 110.361 186.112 110.563L186.191 110.876C187.035 114.232 187.951 117.573 188.513 119.594C188.846 120.782 189.056 121.515 189.056 121.515C189.056 121.515 195.024 111.866 199.787 106.374C199.858 106.295 199.922 106.22 199.989 106.148C200.461 105.606 200.924 105.11 201.368 104.674C202.339 103.708 203.211 103.018 203.912 102.764C204.062 102.71 204.206 102.642 204.344 102.562C206.294 101.457 209.44 97.4426 212.384 93.2383C212.673 92.8421 212.955 92.4101 213.24 92.002C213.894 91.0589 214.528 90.1118 215.126 89.2044C215.586 88.511 216.026 87.8373 216.442 87.1954C218.423 84.1125 219.818 81.8142 219.818 81.8142L222.568 81.6913L223.047 81.6676H223.368L235.855 81.089C235.855 81.089 236.394 81.1802 237.281 81.3585C237.329 81.3585 237.376 81.3585 237.428 81.3902C241.858 82.2699 254.166 85.0556 254.919 88.9191C255.838 93.6504 275.691 99.9629 275.691 99.9629C275.952 103.133 280.814 105.221 280.814 105.221C280.814 105.221 288.177 124.678 286.207 132.302C284.262 139.831 291.271 158.455 291.458 158.978L290.114 160.674L256.88 202.713Z" fill="#E8F5FF"/>
<path opacity="0.1" d="M218.582 63.7566C218.582 63.7566 230.735 60.3092 233.497 67.4062C236.259 74.5032 242.437 103.165 242.437 103.165C242.437 103.165 226.396 106.188 222.192 103.165C219.725 101.37 216.673 100.572 213.644 100.93L204.574 107.107L201.895 106.315C201.895 106.315 216.406 84.7425 219.56 77.4117C222.715 70.0809 223.781 66.8039 218.582 63.7566Z" fill="black"/>
<path d="M218.055 62.1716C218.055 62.1716 230.216 58.7242 232.99 65.8212C235.764 72.9182 241.929 101.58 241.929 101.58C241.929 101.58 225.893 104.603 221.684 101.58C219.22 99.7851 216.169 98.987 213.141 99.3447L204.063 105.522L201.384 104.73C201.384 104.73 215.895 83.1575 219.049 75.8267C222.204 68.4959 223.254 65.2268 218.055 62.1716Z" fill="#E8F5FF"/>
<path opacity="0.1" d="M136.477 176.512C136.477 176.512 145.547 178.747 147.259 183.875C148.971 189.002 140.554 189.133 140.554 189.133C140.554 189.133 135.427 180.063 136.477 176.512Z" fill="black"/>
<path opacity="0.1" d="M170.262 214.371C170.262 214.371 148.048 259.858 153.175 264.197C158.303 268.536 170.262 214.371 170.262 214.371Z" fill="black"/>
<path opacity="0.1" d="M200.893 180.851C200.893 180.851 218.641 225.034 215.091 231.858C211.54 238.681 222.715 231.858 222.715 231.858L200.893 180.851Z" fill="black"/>
<path d="M225.607 224.495C225.607 224.495 165.661 227.388 183.148 246.056C200.635 264.724 236.52 246.848 236.52 246.848L225.607 224.495Z" fill="#FFC1C7"/>
<path opacity="0.1" d="M216.933 47.0226C216.939 51.3221 216.094 55.5802 214.449 59.5523C213.898 59.6157 213.347 59.6553 212.816 59.6791C212.024 57.9395 212.448 55.9305 212.463 54.0166C212.479 52.1026 211.774 49.8519 209.931 49.3367C206.258 48.3025 203.722 55.1697 200.1 53.9294C197.326 52.9863 198.052 48.778 196.455 46.3489C195.191 44.4271 192.658 43.8842 190.689 42.6796C186.501 40.1078 186.627 35.9947 184.682 32.1034C182.645 28.0259 178.342 29.2305 174.605 31.6358C171.768 33.4665 169.319 35.9194 166.283 37.3776C163.656 38.6456 160.704 39.1053 157.792 39.1727C155.998 39.2422 154.205 39.0526 152.466 38.61C154.511 30.9201 159.284 24.2368 165.893 19.8062C172.503 15.3756 180.499 13.5003 188.389 14.53C196.279 15.5597 203.526 19.4241 208.777 25.4025C214.028 31.381 216.926 39.0653 216.929 47.0226H216.933Z" fill="black"/>
<path d="M174.617 30.5858C171.776 32.4165 169.331 34.8654 166.295 36.3315C163.668 37.5956 160.716 38.0553 157.803 38.1226C154.237 38.2019 150.397 37.5758 147.96 35.0001C145.721 32.6225 145.187 28.9651 146.134 25.8465C147.081 22.7279 149.351 20.1404 152.018 18.2661C154.685 16.3918 157.78 15.096 159.547 12.4133C160.482 10.9947 160.934 9.32248 161.711 7.81273C164.195 2.98233 169.782 0.367017 175.183 0.0420844C180.584 -0.282848 185.938 1.32597 191.081 3.06951C196.225 4.81305 201.408 6.73095 206.837 7.09154C209.254 7.24212 211.766 7.09154 214.009 8.0069C217.024 9.23134 219.002 12.1597 220.349 15.1396C221.859 18.4999 222.798 22.1692 222.639 25.8386C222.307 33.6726 217.131 41.3601 219.406 48.8652C220.008 50.8663 221.138 52.919 220.535 54.9201C219.656 57.8405 215.887 58.5062 212.84 58.6449C212.047 56.9053 212.471 54.8923 212.487 52.9824C212.503 51.0724 211.798 48.8177 209.959 48.3025C206.282 47.2762 203.746 54.1315 200.132 52.8952C197.378 51.9481 198.091 47.7438 196.49 45.3147C195.226 43.3889 192.69 42.85 190.725 41.6454C186.536 39.0736 186.663 34.9605 184.717 31.0692C182.665 26.9719 178.357 28.1765 174.617 30.5858Z" fill="#99607E"/>
<path d="M116.489 181.374L113.466 182.428C113.466 182.428 114.655 200.308 110.692 205.435C106.73 210.563 123.705 223.311 123.705 223.311C123.705 223.311 146.974 223.18 147.631 221.329C148.289 219.479 146.443 188.202 146.443 188.202C146.443 188.202 133.953 183.336 135.003 175.581C135.003 175.581 131.191 193.853 125.54 193.064C119.889 192.275 113.474 187.556 116.489 181.374Z" fill="#E8F5FF"/>
<path opacity="0.1" d="M126.574 198.596C130.98 198.596 134.551 195.33 134.551 191.301C134.551 187.272 130.98 184.006 126.574 184.006C122.169 184.006 118.597 187.272 118.597 191.301C118.597 195.33 122.169 198.596 126.574 198.596Z" fill="black"/>
<path d="M135.296 181.901C135.296 181.901 133.711 133.526 119.913 144.304C106.115 155.083 105.981 167.973 108.608 171.781C111.235 175.589 119.659 194.653 119.659 194.653C120.977 195.417 122.457 195.857 123.978 195.939C125.499 196.02 127.018 195.74 128.409 195.122C129.801 194.503 131.027 193.564 131.985 192.38C132.944 191.197 133.609 189.803 133.925 188.313L135.296 181.901Z" fill="#FFC1C7"/>
<path opacity="0.1" d="M221.367 59.3661C221.303 59.1535 221.179 58.9638 221.011 58.8192C220.329 58.1971 218.863 57.9792 216.652 58.1694L216.743 59.2155C219.691 58.9619 220.274 59.5484 220.349 59.6474V59.7465L220.44 59.8773C220.808 60.3713 221.068 60.9366 221.205 61.5371C221.341 62.1376 221.351 62.76 221.233 63.3643C220.587 66.5939 216.62 69.1656 216.581 69.1933L216.485 69.2488L216.426 69.3399C214.714 71.88 205.034 79.0483 202.501 80.9028L202.28 80.6492C201.146 81.6319 191.184 90.3536 190.645 93.694C190.297 95.7903 187.935 96.6026 187.079 96.8285C186.176 96.1429 183.243 93.809 181.718 91.1936C180.287 88.7329 186.045 83.9302 186.552 82.0559L185.759 81.2436C185.676 81.5447 178.282 88.4555 180.339 91.9862C181.987 94.8194 184.999 97.2445 186.053 98.045C185.716 101.104 183.62 119.067 180.398 123.322C176.396 128.612 173.032 155.273 173.404 164.581C173.733 172.851 171.573 188.471 164.361 195.18C163.113 196.392 161.607 197.307 159.955 197.856C158.304 198.405 156.549 198.574 154.823 198.35H154.736H154.649C154.546 198.35 144.085 199.42 135.296 192.01C128.104 185.959 124.03 176.084 123.182 162.651H123.008L122.936 158.74C124.887 158.436 126.643 157.387 127.836 155.815C129.029 154.243 129.567 152.27 129.336 150.31C129.105 148.35 128.123 146.556 126.596 145.304C125.07 144.053 123.118 143.442 121.151 143.6C119.184 143.757 117.354 144.671 116.046 146.15C114.739 147.628 114.055 149.556 114.139 151.528C114.223 153.5 115.068 155.362 116.496 156.724C117.925 158.086 119.826 158.841 121.799 158.831H121.886L121.958 162.719L121.609 162.742C122.481 176.611 126.76 186.871 134.289 193.207C140.012 197.949 147.321 200.341 154.74 199.9C155.267 199.957 155.796 199.986 156.325 199.987C159.726 200.004 162.998 198.688 165.439 196.321C173.036 189.248 175.346 173.053 174.985 164.502C174.589 154.639 178.12 128.937 181.662 124.258C185.133 119.665 187.238 101.77 187.606 98.3025C188.862 97.9499 191.703 96.8364 192.187 93.9437C192.536 91.8514 199.189 85.4043 203.282 81.834L203.159 81.6913C205.362 80.0825 212.214 75.0104 215.61 71.7532C216.664 70.7427 217.71 69.7322 218.804 68.7693C220.119 67.6043 221.791 65.7538 222.231 63.5664C222.381 62.8444 222.382 62.0993 222.233 61.377C222.085 60.6547 221.79 59.9703 221.367 59.3661Z" fill="black"/>
<path d="M185.918 97.7953C185.751 97.6804 181.805 94.8551 179.827 91.4552C177.775 87.9245 185.169 81.0177 185.248 80.7166L186.041 81.5289C185.538 83.3992 179.78 88.2059 181.21 90.6627C183.013 93.7654 186.809 96.4798 186.849 96.5075L185.918 97.7953Z" fill="#353146"/>
<path d="M201.986 81.6715L201.368 80.8196C201.495 80.7284 213.941 71.7254 215.903 68.8129L215.966 68.7257L216.058 68.6663C216.097 68.6385 220.064 66.0708 220.71 62.8373C220.829 62.2336 220.82 61.6116 220.683 61.0116C220.547 60.4116 220.286 59.8469 219.917 59.3542L219.826 59.2194V59.1243C219.747 59.0213 219.164 58.4388 216.216 58.6924L216.125 57.6423C218.34 57.4521 219.802 57.6701 220.484 58.2922C220.653 58.4382 220.778 58.6291 220.844 58.843C221.273 59.4455 221.573 60.1294 221.727 60.8524C221.881 61.5755 221.886 62.3225 221.74 63.0473C221.3 65.2386 219.632 67.0892 218.312 68.2502C217.223 69.2131 216.172 70.2315 215.122 71.234C211.14 75.05 202.422 81.3585 201.986 81.6715Z" fill="#E8F5FF"/>
<path d="M122.425 157.36L121.375 157.38L121.492 163.762L122.542 163.743L122.425 157.36Z" fill="#E8F5FF"/>
<path d="M121.288 158.328C125.523 158.328 128.956 154.895 128.956 150.66C128.956 146.426 125.523 142.993 121.288 142.993C117.053 142.993 113.62 146.426 113.62 150.66C113.62 154.895 117.053 158.328 121.288 158.328Z" fill="#172A3A"/>
<path d="M121.288 157.028C124.805 157.028 127.656 154.177 127.656 150.66C127.656 147.143 124.805 144.292 121.288 144.292C117.771 144.292 114.92 147.143 114.92 150.66C114.92 154.177 117.771 157.028 121.288 157.028Z" fill="#E8F5FF"/>
<path d="M155.826 199.476C155.297 199.476 154.767 199.449 154.241 199.392C146.823 199.829 139.515 197.438 133.79 192.7C126.261 186.359 121.989 176.112 121.11 162.231L122.695 162.132C123.543 175.565 127.616 185.444 134.812 191.491C143.601 198.881 154.059 197.831 154.162 197.831H154.249H154.336C156.063 198.054 157.817 197.884 159.469 197.335C161.121 196.787 162.628 195.872 163.878 194.661C171.086 187.952 173.246 172.332 172.917 164.062C172.52 154.746 175.885 128.085 179.891 122.799C183.398 118.167 185.573 97.2881 185.597 97.0781L185.656 96.4837L186.243 96.3807C186.279 96.3807 189.702 95.7308 190.13 93.171C190.685 89.8345 200.631 81.1128 201.76 80.1261L202.795 81.3149C198.685 84.8812 192.032 91.3324 191.699 93.4286C191.216 96.3292 188.375 97.4387 187.123 97.7874C186.726 101.259 184.638 119.15 181.179 123.742C177.636 128.422 174.106 154.124 174.502 163.987C174.843 172.538 172.556 188.737 164.96 195.806C162.514 198.179 159.234 199.497 155.826 199.476Z" fill="#353146"/>
<g opacity="0.1">
<path opacity="0.1" d="M220.309 37.655C220.959 35.2537 221.744 32.8365 222.291 30.4035C221.637 32.8484 220.848 35.2537 220.309 37.655Z" fill="black"/>
<path opacity="0.1" d="M213.68 56.5249C212.887 54.7853 213.311 52.7723 213.327 50.8623C213.343 48.9524 212.638 46.7175 210.799 46.1825C207.122 45.1562 204.586 52.0155 200.972 50.7752C198.198 49.8281 198.931 45.6238 197.33 43.1947C196.066 41.2689 193.534 40.73 191.569 39.5254C187.376 36.9536 187.503 32.8405 185.561 28.9492C183.521 24.8677 179.221 26.0723 175.481 28.4816C172.639 30.3123 170.194 32.7652 167.159 34.2274C164.532 35.4914 161.58 35.9511 158.667 36.0185C155.121 36.1017 151.261 35.4716 148.824 32.8959C146.946 30.9146 146.268 28.0101 146.657 25.2878C146.589 25.474 146.53 25.6602 146.47 25.8465C145.519 28.965 146.074 32.6304 148.297 35.0001C150.734 37.5758 154.594 38.2018 158.14 38.1226C161.057 38.0552 164.005 37.5956 166.636 36.3315C169.679 34.8653 172.124 32.4165 174.957 30.5857C178.698 28.1765 183.002 26.9719 185.038 31.0533C186.98 34.9446 186.857 39.0578 191.046 41.6295C193.027 42.8183 195.543 43.373 196.811 45.2989C198.396 47.7359 197.695 51.9322 200.453 52.8793C204.063 54.1156 206.599 47.2603 210.276 48.2867C212.115 48.8018 212.824 51.0605 212.804 52.9665C212.784 54.8725 212.372 56.8894 213.157 58.629C216.204 58.4903 219.973 57.8365 220.856 54.9042C220.978 54.4834 221.034 54.0463 221.023 53.6084C219.735 55.8314 216.422 56.4021 213.68 56.5249Z" fill="black"/>
</g>
<path opacity="0.1" d="M285.296 154.163L289.896 159.029C289.896 159.029 293.578 185.844 295.416 188.353C297.255 190.861 301.598 200.839 297.521 208.332C297.521 208.332 296.205 212.409 296.993 214.117C297.782 215.825 291.081 224.373 291.081 224.373C291.081 224.373 282.272 232.258 280.43 233.443C278.587 234.628 268.863 244.09 265.578 244.221C262.293 244.352 261.219 248.429 261.219 248.429L242.682 249.087C242.682 249.087 232.443 248.552 230.216 249.999C230.216 249.999 231.405 234.354 219.965 224.099L234.555 218.841C234.555 218.841 240.079 216.463 241.787 213.979C242.861 212.455 244.385 211.307 246.145 210.694C246.145 210.694 250.219 207.801 250.35 206.224C250.481 204.647 255.331 202.713 255.331 202.713L252.585 179.274L254.031 140.362C254.031 140.362 258.632 107.757 268.36 109.6C278.088 111.443 285.296 154.163 285.296 154.163Z" fill="black"/>
<path d="M286.881 154.163L291.481 159.029C291.481 159.029 295.163 185.844 297.001 188.353C298.84 190.861 303.183 200.839 299.105 208.332C299.105 208.332 297.794 212.409 298.582 214.117C299.371 215.825 292.666 224.373 292.666 224.373C292.666 224.373 283.857 232.258 282.015 233.443C280.172 234.628 270.448 244.09 267.163 244.221C263.878 244.352 262.804 248.429 262.804 248.429L244.267 249.087C244.267 249.087 234.02 248.552 231.801 249.999C231.801 249.999 232.99 234.354 221.55 224.099L236.14 218.841C236.14 218.841 241.664 216.463 243.372 213.979C244.446 212.455 245.97 211.307 247.73 210.694C247.73 210.694 251.804 207.801 251.935 206.224C252.066 204.647 256.916 202.713 256.916 202.713L254.17 179.274L255.616 140.362C255.616 140.362 260.217 107.757 269.945 109.6C279.673 111.443 286.881 154.163 286.881 154.163Z" fill="#E8F5FF"/>
<path opacity="0.1" d="M269.778 193.472C269.778 193.472 283.319 189.906 286.869 194.265C290.42 198.624 269.778 193.472 269.778 193.472Z" fill="black"/>
<path opacity="0.1" d="M266.624 199.452C271.225 202.673 285.423 202.804 285.423 202.804L266.624 199.452Z" fill="black"/>
<path opacity="0.1" d="M273.59 215.556C273.987 215.686 283.35 225.68 287.281 222.657C291.212 219.633 273.59 215.556 273.59 215.556Z" fill="black"/>
<path opacity="0.1" d="M147.485 131.683C147.485 131.683 150.235 150.617 148.88 158.328C147.524 166.039 152.47 175.593 152.47 175.593L147.485 131.683Z" fill="black"/>
<path d="M86.6034 139.383C83.4334 141.867 81.1192 147.748 79.443 154.211C76.5186 165.484 75.5637 178.557 75.5637 178.557C75.5637 178.557 50.3219 172.772 52.1606 170.144C53.3176 168.492 51.7643 156.042 50.4685 147.015C49.6958 141.681 49.0063 137.54 49.0063 137.54C49.0063 137.54 95.2815 132.543 86.6034 139.383Z" fill="#FFCCD0"/>
<path opacity="0.1" d="M86.6034 138.856C83.4334 141.344 81.1192 147.221 79.443 153.684C74.4139 155.211 69.0653 155.349 63.9642 154.082C58.8632 152.816 54.1998 150.193 50.4685 146.492C49.6958 141.154 49.0063 137.013 49.0063 137.013C49.0063 137.013 95.2815 132.02 86.6034 138.856Z" fill="black"/>
<path d="M100.171 124.693C100.174 131.586 97.7383 138.257 93.2953 143.526C88.8523 148.795 82.6885 152.322 75.8949 153.483C69.1012 154.645 62.1157 153.365 56.1747 149.872C50.2337 146.378 45.7202 140.895 43.433 134.393C41.1459 127.892 41.2325 120.79 43.6777 114.346C46.1229 107.903 50.7688 102.531 56.7934 99.1837C62.8179 95.8359 69.8326 94.7274 76.5958 96.0543C83.3591 97.3811 89.4349 101.058 93.748 106.434C97.9043 111.612 100.17 118.053 100.171 124.693Z" fill="#FFCCD0"/>
<path opacity="0.1" d="M123.186 307.195H114.865L114.163 292.497L113.43 277.285C113.43 277.285 115.32 277.004 118.332 276.584L119.549 276.421H119.648C120.305 279.508 120.955 282.678 121.581 285.844C122.623 291.465 123.166 297.167 123.202 302.883C123.202 303.28 123.202 303.676 123.202 304.048C123.226 305.106 123.202 306.164 123.186 307.195Z" fill="black"/>
<path d="M121.589 307.195H17.2303C17.6821 306.168 17.9832 305.546 17.9832 305.546C17.9832 305.546 26.3324 269.019 30.5764 253.565C30.5777 253.552 30.5777 253.539 30.5764 253.525C31.1066 251.426 31.7468 249.356 32.4943 247.324C32.5426 247.186 32.605 247.053 32.6805 246.928C34.7807 243.512 37.4118 239.831 33.7306 234.572C30.0493 229.314 31.353 206.176 31.353 206.176C31.353 206.176 35.8228 186.454 40.5542 175.938C41.2722 174.309 42.2913 172.83 43.5578 171.579C43.9696 171.176 44.4092 170.803 44.8734 170.461C45.2263 170.196 45.5941 169.951 45.975 169.728L46.0503 169.681C48.0378 168.554 50.2449 167.869 52.5212 167.672C54.1382 167.503 55.7703 167.548 57.3754 167.806C65.047 168.932 71.189 170.814 76.0709 172.958C89.302 178.771 93.3082 186.561 93.3875 186.724L93.4192 186.791C93.9501 188.032 101.717 206.164 104.514 214.625C105.24 216.828 105.636 218.377 105.477 218.801C104.685 220.901 111.524 247.193 111.524 247.193C111.524 247.193 114.694 259.873 117.864 274.737C118.003 275.355 118.134 275.973 118.261 276.6C118.827 279.298 119.39 282.048 119.933 284.794C120.985 290.454 121.527 296.196 121.554 301.952C121.612 303.746 121.624 305.493 121.589 307.195Z" fill="#EB5E28"/>
<path opacity="0.1" d="M51.899 158.629C51.899 158.629 44.699 155.855 44.7862 160.064C44.8734 164.272 46.5416 166.285 46.0146 166.899C45.4876 167.513 46.2761 171.194 46.2761 171.194C46.2761 171.194 56.0043 171.194 60.4741 173.207C64.9439 175.22 81.4204 179.254 83.5245 180.483C85.6287 181.711 93.431 187.219 93.431 187.219L94.1324 176.79C94.1324 176.79 86.0685 170.129 72.8374 166.713C59.6063 163.297 51.899 158.629 51.899 158.629Z" fill="black"/>
<path d="M51.899 158.102C51.899 158.102 44.699 155.328 44.7862 159.537C44.8734 163.745 46.5416 165.758 46.0146 166.372C45.4876 166.986 46.2761 170.667 46.2761 170.667C46.2761 170.667 56.0043 170.667 60.4741 172.684C64.9439 174.701 81.4204 178.731 83.5245 179.956C85.6287 181.18 93.431 186.692 93.431 186.692L94.1403 176.294C94.1403 176.294 86.0764 169.633 72.8453 166.217C59.6142 162.802 51.899 158.102 51.899 158.102Z" fill="#EB5E28"/>
<path opacity="0.1" d="M73.6339 183.201C73.6339 183.201 87.392 198.097 86.6907 202.222C85.9893 206.347 73.6339 183.201 73.6339 183.201Z" fill="black"/>
<path opacity="0.1" d="M51.2848 237.009C51.2848 237.009 41.2 246.302 38.228 246.829C35.2561 247.356 40.5065 249.107 43.9223 247.708C47.338 246.309 54.6213 242.628 54.6213 242.628L51.2848 237.009Z" fill="black"/>
<path d="M125.687 307.195H102.168C98.8795 304.342 95.7689 301.699 93.7876 300.11C90.6175 297.566 88.3311 293.821 86.8729 290.809C86.544 290.124 86.2587 289.482 86.017 288.899C85.5841 287.896 85.2032 286.871 84.8757 285.828L102.291 275.486C103.254 276.305 104.158 277.189 104.998 278.133L105.208 278.375C106.175 279.516 107.027 280.812 107.102 281.874C107.189 283.11 110.629 287.893 114.143 292.486C117.71 297.158 121.363 301.623 121.605 301.925C121.605 301.925 122.207 302.745 123.19 304.005C123.884 304.916 124.739 306.01 125.687 307.195Z" fill="#FFCCD0"/>
<path opacity="0.1" d="M93.748 106.434C92.9119 108.32 92.1629 110.278 92.052 112.378C91.7389 118.44 92.2462 131.996 85.5335 135.04C82.2089 136.538 78.6505 133.249 75.0049 133.169C72.3817 133.114 69.9764 134.778 68.3755 136.859C66.7746 138.939 65.78 141.408 64.619 143.761C63.5621 145.898 62.3447 147.951 60.9773 149.903C60.5686 150.501 60.1184 151.069 59.6301 151.603C55.5369 149.876 51.8921 147.238 48.9732 143.888C46.0543 140.539 43.9385 136.568 42.7869 132.277C41.6353 127.987 41.4783 123.49 42.3279 119.129C43.1775 114.768 45.0113 110.659 47.6896 107.115C50.3678 103.57 53.8198 100.684 57.7825 98.6754C61.7452 96.667 66.1141 95.5898 70.5562 95.5256C74.9984 95.4615 79.3965 96.4122 83.4156 98.3053C87.4346 100.198 90.9685 102.984 93.748 106.45V106.434Z" fill="black"/>
<path d="M91.525 111.308C91.208 117.371 91.7192 130.927 85.0026 133.966C81.678 135.464 78.1195 132.179 74.474 132.1C71.8507 132.04 69.4494 133.708 67.8445 135.785C66.2397 137.861 65.253 140.334 64.088 142.692C63.0308 144.828 61.8134 146.881 60.4464 148.834C59.6301 149.991 58.7266 151.152 57.4705 151.802C55.2831 152.943 52.6321 152.301 50.2863 151.568C47.243 150.609 44.2446 149.528 41.2912 148.326C41.359 147.88 41.3934 147.43 41.3942 146.979C41.307 147.146 41.2119 147.3 41.1168 147.467L40.9306 147.791C40.5938 148.386 40.2649 148.98 39.9637 149.59C39.8488 149.824 39.7378 150.066 39.6388 150.308C39.2403 151.207 38.99 152.165 38.8978 153.145C38.6957 155.788 39.9994 158.296 41.1565 160.674C45.6065 169.871 48.3565 180.626 45.0081 190.274C43.5578 194.471 41.0455 198.2 39.2108 202.253C36.0036 209.433 35.0596 217.42 36.5044 225.149C37.4197 229.952 39.2544 234.707 38.8027 239.577C38.0102 247.958 30.7824 254.195 23.5427 258.483C19.6316 260.789 14.8448 262.841 10.692 261.019C13.339 257.928 14.0206 253.652 14.5912 249.618C16.1525 238.615 17.7177 227.607 19.2869 216.594C19.913 212.211 20.5377 207.829 21.1612 203.446C22.3262 195.212 23.5071 186.886 22.7779 178.601C22.247 172.494 20.7491 166.011 23.3961 160.484C24.7949 157.555 27.2874 155.13 28.064 151.976C28.702 149.412 28.1076 146.686 28.5277 144.075C28.7576 142.886 29.1468 141.735 29.6847 140.651C30.3698 139.18 31.264 137.816 32.3397 136.601C31.2777 136.292 30.2871 135.868 29.6847 134.98C31.3887 133.871 31.6462 131.37 30.8735 129.492C30.1008 127.614 28.5554 126.183 27.1645 124.701C25.7737 123.219 24.4343 121.492 24.2599 119.471C23.9231 115.623 27.7668 112.643 28.4444 108.847C29.13 104.984 26.4196 101.227 26.6375 97.3159C26.8911 92.5885 31.2341 89.1529 35.5216 87.1598C41.9917 84.1646 49.1389 82.9342 56.2381 83.5934C62.0156 84.1403 67.6068 85.9274 73.3684 86.6209C76.8436 87.0171 80.3663 87.0567 83.8177 87.667C87.2692 88.2772 90.7285 89.5651 93.1576 92.0972C99.5611 98.7741 91.8896 104.27 91.525 111.308Z" fill="#FFE0D0"/>
<path opacity="0.1" d="M86.1676 290.813C84.1467 289.938 80.4694 290.461 74.157 288.539C67.8446 286.617 66.6281 277.931 66.6281 277.931V277.903C66.5528 277.705 65.9663 276.413 61.9958 271.888C57.6092 266.891 48.1267 241.653 48.1267 241.653C48.1267 241.653 39.7181 232.623 39.9836 229.294C40.2491 225.965 38.4897 217.109 38.664 207.203C38.8384 197.296 57.5933 190.726 57.5933 190.726C93.7045 184.327 85.2007 225.958 84.2378 229.112C83.2749 232.266 88.2718 240.786 88.2718 240.786C87.5664 244.495 91.1645 250.236 91.1645 250.236C91.1645 250.236 92.0362 255.316 92.2145 257.246C92.2244 257.335 92.2444 257.423 92.274 257.508C92.8525 259.327 97.568 260.975 99.4859 261.978C101.503 263.032 107.99 272.233 107.99 272.233C109.388 278.989 88.1806 291.701 86.1676 290.813Z" fill="black"/>
<path d="M87.2177 289.228C85.2007 288.349 81.5195 288.876 75.211 286.95C68.9025 285.024 67.6821 276.346 67.6821 276.346V276.318C67.6107 276.116 67.0203 274.828 63.0498 270.303C58.6632 265.306 49.1807 240.064 49.1807 240.064C49.1807 240.064 40.7721 231.038 41.0336 227.709C41.2951 224.38 39.5437 215.524 39.718 205.626C39.8924 195.727 58.6355 189.161 58.6355 189.161C94.7466 182.761 86.2429 224.392 85.28 227.547C84.317 230.701 89.3139 239.22 89.3139 239.22C88.6085 242.929 92.2066 248.671 92.2066 248.671C92.2066 248.671 93.0784 253.751 93.2606 255.681C93.2673 255.77 93.2859 255.858 93.3161 255.943C93.8946 257.761 98.6101 259.41 100.532 260.412C102.545 261.462 109.036 270.668 109.036 270.668C110.442 277.412 89.2346 290.124 87.2177 289.228Z" fill="#EB5E28"/>
<path opacity="0.1" d="M59.3488 210.896C59.3488 210.896 75.1239 227.539 79.241 227.539C83.3581 227.539 59.3488 210.896 59.3488 210.896Z" fill="black"/>
<path d="M87.2177 289.228C85.2008 288.349 81.5195 288.876 75.2111 286.95C68.9026 285.024 67.6821 276.346 67.6821 276.346V276.318C71.8627 273.544 82.4507 265.71 86.6233 262.845C89.5596 260.836 91.957 257.884 93.3598 255.927C93.9383 257.746 98.6538 259.394 100.576 260.396C102.589 261.447 109.079 270.652 109.079 270.652C110.442 277.412 89.2347 290.124 87.2177 289.228Z" fill="#EB5E28"/>
<g opacity="0.1">
<path opacity="0.1" d="M29.7085 135.024C29.7283 135.056 29.756 135.083 29.7798 135.115C29.8987 134.964 30.0215 134.814 30.1483 134.671C30.0133 134.803 29.866 134.921 29.7085 135.024Z" fill="black"/>
<path opacity="0.1" d="M38.9017 153.188C39.0682 150.989 40.2451 149.051 41.3467 147.118C40.6255 146.84 39.9043 146.559 39.191 146.266C39.2589 145.821 39.2934 145.372 39.294 144.922C38.1805 146.904 36.968 148.853 36.7976 151.084C36.5955 153.731 37.8992 156.236 39.0563 158.613C43.5102 167.806 46.2563 178.561 42.9079 188.214C41.4536 192.406 38.9453 196.139 37.1106 200.193C33.9046 207.372 32.9619 215.357 34.4081 223.085C35.3156 227.891 37.1542 232.642 36.7025 237.512C35.91 245.893 28.6862 252.13 21.4425 256.414C18.4825 258.166 15.0231 259.77 11.7144 259.655C11.4081 260.148 11.0664 260.619 10.692 261.062C14.8488 262.897 19.6316 260.832 23.5427 258.518C30.7903 254.239 38.03 248.017 38.8225 239.621C39.2742 234.751 37.4356 229.999 36.5242 225.193C35.0775 217.466 36.0174 209.481 39.2187 202.301C41.0415 198.251 43.5776 194.514 45.016 190.322C48.3644 180.669 45.6144 169.915 41.1644 160.721C40.0113 158.328 38.6996 155.835 38.9017 153.188Z" fill="black"/>
<path opacity="0.1" d="M93.1496 92.1447C92.7598 91.7448 92.3413 91.3739 91.8974 91.0351C96.7001 97.2643 89.7656 102.558 89.4208 109.263C89.1117 115.326 89.6189 128.886 82.9023 131.921C79.5817 133.423 76.0193 130.134 72.3777 130.055C69.7505 129.999 67.3492 131.668 65.7443 133.744C64.1395 135.82 63.1528 138.293 61.9917 140.647C60.9326 142.783 59.7139 144.836 58.3461 146.789C57.5536 147.95 56.6264 149.107 55.3663 149.761C53.1868 150.898 50.5359 150.26 48.1861 149.523C45.901 148.804 43.637 148.012 41.3942 147.145C41.3895 147.558 41.3551 147.97 41.2911 148.378C44.2472 149.582 47.2469 150.663 50.2902 151.619C52.636 152.356 55.287 152.994 57.4704 151.857C58.7266 151.203 59.6379 150.042 60.4503 148.881C61.819 146.931 63.0364 144.879 64.0919 142.743C65.2569 140.389 66.2396 137.913 67.8484 135.836C69.4573 133.76 71.8546 132.096 74.4779 132.151C78.1235 132.23 81.6858 135.519 85.0065 134.017C91.7231 130.982 91.2119 117.422 91.525 111.359C91.8895 104.31 99.5611 98.8177 93.1496 92.1447Z" fill="black"/>
</g>
<path opacity="0.1" d="M40.9346 147.795C40.5977 148.39 40.2689 148.984 39.9677 149.594C39.8528 149.828 39.7418 150.07 39.6428 150.312C37.5664 148.219 32.5101 143.246 29.6887 141.705C30.3747 140.234 31.2689 138.871 32.3437 137.655C32.3437 137.655 39.0682 141.21 40.9346 147.795Z" fill="black"/>
<path d="M41.1208 147.47C39.5635 140.421 32.3437 136.605 32.3437 136.605C31.268 137.82 30.3737 139.184 29.6887 140.655C32.6646 142.283 38.1489 147.744 39.9677 149.594L41.1208 147.47Z" fill="#EB5E28"/>
<path d="M311.715 307.161H0V308.506H311.715V307.161Z" fill="#3F3D56"/>
<defs>
<linearGradient id="paint0_linear_11_550" x1="221.882" y1="34.8574" x2="221.882" y2="27.5742" gradientUnits="userSpaceOnUse">
<stop stop-color="#808080" stop-opacity="0.25"/>
<stop offset="0.54" stop-color="#808080" stop-opacity="0.12"/>
<stop offset="1" stop-color="#808080" stop-opacity="0.1"/>
</linearGradient>
</defs>
</svg>
